# xmcd
#
# Track frame offsets: 
#        150
#        14610
#        34009
#        48607
#        64284
#        79459
#        95844
#        111443
#        127223
#        147409
#        164090
#        179246
#        196508
#        210052
#
# Disc length: 3034 seconds
#
# Revision: 0
# Processed by: cddbd v1.5.2PL0 Copyright (c) Steve Scherf et al.
# Submitted via: ExactAudioCopy v0.99pb5
#
DISCID=db0bd80e
DTITLE=Carolina Breakers - Dont Say No
DYEAR=2010
DGENRE=Beach
TTITLE0=Shonuff In Love
TTITLE1=Dont Play That Song
TTITLE2=Dont Say No
TTITLE3=Boardwalk Angel
TTITLE4=Key To My Heart
TTITLE5=I Love You 1000 Times
TTITLE6=Maybe This Time
TTITLE7=Beach, Boogie, and Blues
TTITLE8=What Becomes Of The Brokenhearted
TTITLE9=See You When I Get There
TTITLE10=Summer Girl
TTITLE11=Old Habits Die Hard (Give It Up)
TTITLE12=Without You Girl
TTITLE13=Everybody Needs Love
EXTD=
EXTT0=
EXTT1=
EXTT2=
EXTT3=
EXTT4=
EXTT5=
EXTT6=
EXTT7=
EXTT8=
EXTT9=
EXTT10=
EXTT11=
EXTT12=
EXTT13=
PLAYORDER=
